<svg id="svg" version="1.1" xmlns="http://www.w3.org/2000/svg" xmlns:xlink="http://www.w3.org/1999/xlink" width="400" height="400" viewBox="0, 0, 400,400"><g id="svgg"><path id="path0" d="M0.000 200.000 L 0.000 400.000 200.000 400.000 L 400.000 400.000 400.000 200.000 L 400.000 0.000 200.000 0.000 L 0.000 0.000 0.000 200.000 M222.729 144.224 C 231.261 147.069,236.007 153.631,235.995 162.566 C 235.985 170.181,233.910 174.180,226.698 180.487 C 225.478 181.554,225.120 182.213,224.792 184.000 C 223.135 193.033,212.881 199.645,200.636 199.578 C 192.098 199.530,189.955 196.240,193.352 188.400 C 198.208 177.194,204.805 172.600,216.037 172.600 C 223.944 172.600,224.782 171.954,224.289 166.242 C 223.143 152.959,206.770 153.899,198.000 167.750 C 196.224 170.555,196.122 170.544,194.021 167.300 C 182.292 149.195,162.440 157.121,168.964 177.304 C 174.692 195.027,196.962 208.285,215.547 205.038 C 224.964 203.393,234.729 196.631,233.800 192.399 C 233.021 188.853,235.009 184.775,240.059 179.566 C 243.067 176.463,254.118 166.762,255.200 166.275 C 255.530 166.127,256.091 165.795,256.446 165.539 C 257.309 164.916,258.400 165.382,258.400 166.374 C 258.400 167.175,257.685 168.056,252.740 173.352 C 243.706 183.026,243.052 184.516,250.766 177.854 C 260.373 169.557,260.697 169.321,261.874 169.773 C 263.243 170.299,262.224 171.812,257.062 176.919 C 249.873 184.032,247.704 187.036,250.646 185.807 C 252.324 185.106,253.511 184.114,259.090 178.751 C 263.097 174.899,264.816 173.856,265.698 174.738 C 266.372 175.412,265.622 176.687,262.708 179.824 C 255.167 187.943,253.271 190.204,253.668 190.601 C 254.074 191.007,258.131 187.770,262.892 183.243 C 268.084 178.306,268.947 177.773,269.406 179.220 C 269.835 180.571,262.317 189.668,254.300 197.496 C 249.832 201.860,248.743 202.400,244.415 202.400 L 241.204 202.400 237.915 204.839 C 224.416 214.848,204.015 217.276,187.926 210.790 C 162.769 200.647,149.208 175.140,158.663 155.750 C 165.097 142.556,183.746 140.030,193.884 150.980 L 196.482 153.786 197.454 152.593 C 204.382 144.091,213.388 141.109,222.729 144.224 M183.784 163.738 C 190.368 167.223,194.215 174.611,192.964 181.367 C 192.459 184.094,192.128 184.034,188.791 180.618 C 185.213 176.954,185.081 177.017,187.208 181.369 C 189.353 185.761,189.223 186.193,185.848 185.877 C 175.322 184.894,171.130 175.955,175.249 163.272 C 176.030 160.869,178.631 161.011,183.784 163.738 M274.280 221.371 C 274.456 221.685,274.550 227.445,274.489 234.171 L 274.377 246.400 271.635 246.400 C 269.174 246.400,268.871 246.313,268.670 245.548 C 268.460 244.743,268.409 244.733,267.762 245.381 C 264.880 248.263,258.405 246.780,256.203 242.734 C 251.596 234.270,258.642 224.331,266.667 227.975 C 268.792 228.939,268.800 228.926,268.800 224.800 C 268.800 222.893,268.920 221.213,269.067 221.067 C 269.607 220.527,273.949 220.780,274.280 221.371 M139.470 223.214 C 144.242 225.984,144.669 234.216,140.179 236.866 C 138.436 237.894,138.355 237.548,141.371 241.987 C 144.410 246.462,144.424 246.400,140.403 246.400 L 137.254 246.400 134.927 242.813 C 132.967 239.792,132.395 239.186,131.303 238.969 C 129.040 238.521,128.844 238.802,128.716 242.681 L 128.600 246.200 125.800 246.200 L 123.000 246.200 122.894 234.605 C 122.835 228.228,122.883 222.761,123.000 222.456 C 123.416 221.370,137.404 222.014,139.470 223.214 M207.520 222.480 C 208.170 223.130,208.135 226.590,207.472 227.140 C 207.157 227.402,204.544 227.622,200.972 227.689 L 195.000 227.800 194.874 229.560 C 194.705 231.919,194.941 232.015,200.737 231.960 C 206.403 231.907,206.488 231.951,206.323 234.843 L 206.200 237.000 200.500 237.111 L 194.800 237.222 194.800 241.531 C 194.800 246.614,194.769 246.659,191.519 246.401 L 189.000 246.200 188.894 234.605 C 188.835 228.228,188.875 222.783,188.981 222.505 C 189.252 221.798,206.815 221.775,207.520 222.480 M128.967 227.742 C 128.852 228.040,128.813 229.435,128.879 230.842 L 129.000 233.400 131.630 233.517 C 136.067 233.714,138.358 231.827,136.962 229.126 C 136.076 227.414,129.528 226.280,128.967 227.742 M158.040 227.655 C 161.779 228.907,164.137 232.525,163.921 236.681 L 163.800 239.000 157.900 239.111 C 151.514 239.230,150.912 239.486,153.054 241.171 C 154.416 242.242,156.316 242.225,158.588 241.121 L 160.398 240.241 161.799 241.599 C 163.595 243.340,163.566 243.601,161.402 245.155 C 156.910 248.382,149.189 246.682,146.766 241.934 C 142.722 234.007,149.891 224.927,158.040 227.655 M179.313 227.739 C 182.544 229.094,184.505 231.826,184.967 235.619 C 185.414 239.289,185.562 239.200,178.981 239.200 C 172.716 239.200,171.947 239.474,173.849 241.030 C 175.334 242.244,177.550 242.283,179.555 241.129 L 181.068 240.258 182.534 241.377 C 187.226 244.955,176.990 248.806,171.294 245.605 C 161.396 240.042,168.880 223.367,179.313 227.739 M222.840 227.663 C 233.243 231.209,231.402 245.941,220.462 246.691 C 214.002 247.133,209.360 243.055,209.432 237.000 C 209.513 230.252,216.389 225.464,222.840 227.663 M246.400 228.032 C 250.397 229.842,252.188 232.702,252.183 237.267 C 252.167 249.428,233.364 250.300,232.115 238.197 C 231.319 230.482,239.287 224.812,246.400 228.032 M152.743 233.196 C 151.114 234.825,151.541 235.200,155.024 235.200 C 158.373 235.200,158.782 234.746,157.018 232.982 C 155.689 231.652,154.213 231.726,152.743 233.196 M173.896 233.016 C 172.019 234.757,172.400 235.200,175.776 235.200 C 179.244 235.200,179.725 234.792,178.169 233.167 C 176.778 231.716,175.352 231.666,173.896 233.016 M217.703 232.812 C 216.547 233.276,215.203 235.483,215.201 236.920 C 215.196 240.880,219.567 243.048,222.418 240.500 C 226.203 237.118,222.402 230.922,217.703 232.812 M240.555 232.773 C 237.343 234.142,237.163 239.743,240.285 241.166 C 243.380 242.576,246.375 240.586,246.391 237.106 C 246.406 233.880,243.326 231.593,240.555 232.773 M262.943 232.778 C 260.586 233.780,259.952 238.130,261.836 240.369 C 263.412 242.242,265.840 242.144,267.603 240.135 C 270.687 236.623,267.125 230.999,262.943 232.778 " stroke="none" fill="#fbfbfb" fill-rule="evenodd"></path><path id="path1" d="M208.486 145.177 C 204.822 146.623,203.403 147.667,199.348 151.902 L 196.096 155.299 195.071 153.790 C 188.997 144.852,173.993 142.023,166.301 148.364 C 147.796 163.619,156.722 194.456,183.559 207.990 C 201.218 216.894,224.511 214.883,238.606 203.236 C 240.571 201.611,240.609 201.600,243.909 201.600 C 249.059 201.600,252.089 199.369,261.564 188.600 C 269.337 179.765,271.210 176.365,265.051 182.270 C 257.342 189.661,254.404 192.000,252.828 192.000 C 251.011 192.000,252.968 189.045,258.908 182.817 C 263.766 177.724,265.623 175.195,264.500 175.202 C 264.335 175.203,263.366 175.968,262.347 176.902 C 261.328 177.836,258.808 180.147,256.747 182.038 C 252.879 185.588,249.532 187.852,248.812 187.407 C 247.297 186.471,249.602 183.177,256.650 176.205 C 259.373 173.512,261.600 171.194,261.600 171.054 C 261.600 170.468,260.119 170.866,259.193 171.700 C 258.644 172.195,256.666 173.888,254.797 175.462 C 252.929 177.037,250.053 179.512,248.407 180.962 C 245.293 183.707,244.000 184.234,244.000 182.758 C 244.000 181.766,244.721 180.858,250.164 175.000 C 256.240 168.459,257.200 167.348,257.200 166.852 C 257.200 166.033,256.192 166.379,254.584 167.751 C 253.713 168.493,251.470 170.404,249.600 171.996 C 237.968 181.898,234.800 186.027,234.800 191.284 C 234.800 194.147,233.990 196.231,232.288 197.746 C 216.583 211.722,191.539 208.439,175.992 190.367 C 168.981 182.218,167.078 177.747,167.066 169.400 C 167.043 153.679,184.723 151.404,194.000 165.934 C 196.168 169.330,195.956 169.286,197.717 166.700 C 207.517 152.306,224.349 152.235,225.058 166.584 C 225.344 172.377,223.209 174.503,218.036 173.579 C 208.820 171.932,199.750 177.081,195.074 186.617 C 190.728 195.479,192.163 198.800,200.341 198.800 C 211.968 198.800,222.477 192.367,223.797 184.441 C 224.250 181.722,225.015 180.270,226.428 179.441 C 235.130 174.341,237.947 160.585,232.045 152.013 C 227.247 145.044,216.630 141.964,208.486 145.177 M176.093 163.700 C 172.007 175.068,176.692 185.131,186.100 185.191 C 188.006 185.203,188.014 185.261,185.400 179.782 C 181.963 172.578,182.458 172.224,187.750 178.100 C 191.632 182.410,191.821 182.525,192.200 180.800 C 193.733 173.820,188.285 165.924,179.929 163.014 C 177.284 162.093,176.629 162.210,176.093 163.700 M269.885 221.848 C 269.728 222.005,269.600 223.993,269.600 226.267 C 269.600 230.915,269.521 231.009,267.056 229.300 C 263.647 226.938,258.659 228.326,256.636 232.200 C 252.529 240.063,260.339 249.355,267.111 244.662 C 268.785 243.502,269.709 243.528,269.511 244.730 C 269.421 245.274,269.797 245.423,271.506 245.521 L 273.612 245.642 273.506 233.721 L 273.400 221.800 271.785 221.681 C 270.898 221.616,270.043 221.691,269.885 221.848 M123.900 223.030 C 123.735 223.197,123.600 228.343,123.600 234.467 L 123.600 245.600 125.800 245.600 L 128.000 245.600 128.000 242.043 C 128.000 238.046,128.034 238.000,131.027 238.000 C 132.659 238.000,132.870 238.125,133.894 239.700 C 134.502 240.635,135.135 241.460,135.300 241.533 C 135.465 241.607,135.600 241.842,135.600 242.057 C 135.600 243.639,138.184 245.600,140.267 245.600 C 142.878 245.600,142.896 245.868,140.007 241.579 C 137.756 238.236,137.322 236.800,138.564 236.800 C 138.828 236.800,139.585 236.215,140.247 235.500 C 143.553 231.929,143.116 226.897,139.266 224.210 L 137.532 223.000 130.866 222.863 C 127.200 222.788,124.065 222.863,123.900 223.030 M189.771 223.331 C 189.659 223.623,189.620 228.708,189.684 234.631 L 189.800 245.400 191.900 245.521 L 194.000 245.642 194.000 241.654 C 194.000 235.990,193.533 236.400,199.986 236.400 L 205.486 236.400 205.443 234.700 L 205.400 233.000 200.016 232.888 C 193.899 232.760,194.015 232.825,194.006 229.524 C 193.998 226.606,193.952 226.628,200.400 226.534 C 203.370 226.491,206.004 226.443,206.253 226.428 C 206.790 226.395,207.188 224.642,206.905 223.560 C 206.649 222.579,190.145 222.358,189.771 223.331 M136.621 227.377 C 140.973 230.229,138.008 234.490,131.800 234.306 L 128.200 234.200 128.083 230.861 C 127.927 226.385,128.065 226.241,132.294 226.505 C 134.406 226.637,135.974 226.953,136.621 227.377 M151.800 228.748 C 145.199 231.763,144.545 241.061,150.681 244.666 C 153.808 246.503,158.694 246.292,161.094 244.215 L 162.200 243.258 161.317 242.429 C 160.263 241.440,160.034 241.421,158.546 242.198 C 155.562 243.754,150.800 241.936,150.800 239.240 C 150.800 238.423,150.968 238.400,157.000 238.400 L 163.200 238.400 163.200 236.774 C 163.200 230.628,157.095 226.330,151.800 228.748 M173.491 228.511 C 164.891 231.297,166.021 244.695,174.951 245.811 C 179.683 246.402,184.135 244.132,182.012 242.211 C 181.274 241.543,181.136 241.539,179.851 242.149 C 177.388 243.318,174.546 243.026,172.960 241.440 C 170.215 238.695,170.887 238.305,178.231 238.379 C 184.964 238.446,184.891 238.495,183.836 234.699 C 182.382 229.469,178.220 226.980,173.491 228.511 M216.815 228.470 C 208.982 230.717,208.017 241.345,215.315 244.982 C 219.788 247.211,225.440 245.526,227.712 241.286 C 231.510 234.200,224.712 226.204,216.815 228.470 M240.200 228.359 C 231.642 230.650,230.305 241.385,238.124 245.026 C 247.035 249.174,255.311 239.115,249.382 231.341 C 247.515 228.893,243.309 227.527,240.200 228.359 M157.142 231.770 C 158.293 232.365,159.200 233.885,159.200 235.219 C 159.200 235.944,158.900 236.000,155.000 236.000 C 150.907 236.000,150.800 235.977,150.814 235.100 C 150.861 232.096,154.287 230.294,157.142 231.770 M178.269 231.882 C 179.369 232.603,180.588 234.973,180.189 235.618 C 179.757 236.316,172.122 236.094,171.846 235.375 C 170.829 232.725,175.597 230.132,178.269 231.882 M266.584 231.832 C 269.200 232.488,270.458 238.111,268.562 240.669 C 265.288 245.086,258.709 241.474,259.766 235.840 C 260.225 233.393,263.320 230.853,265.137 231.432 C 265.433 231.526,266.084 231.706,266.584 231.832 M223.246 233.121 C 227.479 237.859,221.809 245.176,216.565 241.741 C 213.511 239.739,213.697 233.961,216.876 232.118 C 218.566 231.138,221.950 231.671,223.246 233.121 M245.284 232.459 C 247.299 233.895,248.214 237.257,247.151 239.326 C 243.957 245.543,235.024 241.793,237.215 235.155 C 238.332 231.771,242.405 230.410,245.284 232.459 " stroke="none" fill="#7fa54d" fill-rule="evenodd"></path><path id="path2" d="M208.643 144.190 C 204.390 145.690,201.010 148.229,197.454 152.593 L 196.482 153.786 193.884 150.980 C 183.746 140.030,165.097 142.556,158.663 155.750 C 149.208 175.140,162.769 200.647,187.926 210.790 C 204.015 217.276,224.416 214.848,237.915 204.839 L 241.204 202.400 244.415 202.400 C 248.743 202.400,249.832 201.860,254.300 197.496 C 262.317 189.668,269.835 180.571,269.406 179.220 C 268.947 177.773,268.084 178.306,262.892 183.243 C 258.131 187.770,254.074 191.007,253.668 190.601 C 253.271 190.204,255.167 187.943,262.708 179.824 C 265.622 176.687,266.372 175.412,265.698 174.738 C 264.816 173.856,263.097 174.899,259.090 178.751 C 253.511 184.114,252.324 185.106,250.646 185.807 C 247.704 187.036,249.873 184.032,257.062 176.919 C 262.224 171.812,263.243 170.299,261.874 169.773 C 260.697 169.321,260.373 169.557,250.766 177.854 C 243.052 184.516,243.706 183.026,252.740 173.352 C 257.685 168.056,258.400 167.175,258.400 166.374 C 258.400 165.382,257.309 164.916,256.446 165.539 C 256.091 165.795,255.530 166.127,255.200 166.275 C 254.118 166.762,243.067 176.463,240.059 179.566 C 235.009 184.775,233.021 188.853,233.800 192.399 C 234.729 196.631,224.964 203.393,215.547 205.038 C 196.962 208.285,174.692 195.027,168.964 177.304 C 162.440 157.121,182.292 149.195,194.021 167.300 C 196.122 170.544,196.224 170.555,198.000 167.750 C 204.435 157.586,213.970 154.116,221.290 159.273 C 224.365 161.438,225.449 169.972,222.916 172.068 C 222.442 172.460,220.637 172.600,216.037 172.600 C 204.805 172.600,198.208 177.194,193.352 188.400 C 189.955 196.240,192.098 199.530,200.636 199.578 C 212.881 199.645,223.135 193.033,224.792 184.000 C 225.120 182.213,225.478 181.554,226.698 180.487 C 233.910 174.180,235.985 170.181,235.995 162.566 C 236.013 148.748,222.139 139.427,208.643 144.190 M223.329 145.179 C 237.518 150.661,239.432 171.819,226.428 179.441 C 225.188 180.168,224.002 182.172,223.998 183.549 C 223.971 191.480,211.567 199.190,199.558 198.741 C 192.537 198.478,191.066 195.563,194.270 188.260 C 199.005 177.468,208.158 171.813,218.036 173.579 C 223.209 174.503,225.344 172.377,225.058 166.584 C 224.349 152.235,207.517 152.306,197.717 166.700 C 195.956 169.286,196.168 169.330,194.000 165.934 C 189.873 159.470,185.398 156.611,179.400 156.604 C 170.992 156.595,167.053 160.681,167.066 169.400 C 167.078 177.747,168.981 182.218,175.992 190.367 C 191.442 208.327,216.555 211.709,232.089 197.921 C 233.983 196.240,234.800 194.241,234.800 191.284 C 234.800 186.027,237.972 181.894,249.600 171.996 C 251.470 170.405,253.810 168.406,254.800 167.555 C 256.737 165.890,257.738 165.551,257.321 166.700 C 257.034 167.490,255.846 168.875,250.548 174.600 C 244.627 180.996,244.019 181.749,244.009 182.700 C 243.993 184.244,245.253 183.744,248.407 180.951 C 250.053 179.494,252.930 177.019,254.800 175.452 C 256.670 173.885,258.290 172.506,258.400 172.388 C 258.956 171.790,260.952 170.400,261.254 170.400 C 262.233 170.400,261.149 171.770,256.577 176.309 C 249.475 183.359,247.298 186.472,248.812 187.407 C 249.813 188.026,254.019 184.756,262.142 177.044 C 263.876 175.398,265.200 174.716,265.200 175.469 C 265.200 175.843,261.547 180.084,258.541 183.200 C 253.090 188.850,251.045 192.000,252.828 192.000 C 254.402 192.000,257.340 189.662,265.021 182.300 C 273.917 173.772,266.232 184.141,256.009 194.459 C 249.537 200.991,248.504 201.600,243.909 201.600 C 240.609 201.600,240.571 201.611,238.606 203.236 C 230.164 210.212,217.698 214.017,204.971 213.502 C 166.871 211.962,141.334 168.946,166.301 148.364 C 173.658 142.299,189.173 144.850,194.593 153.016 L 196.129 155.330 198.651 152.524 C 205.805 144.564,214.804 141.886,223.329 145.179 M176.540 161.625 C 175.587 161.979,175.114 163.177,174.209 167.526 C 172.051 177.896,176.563 185.010,185.848 185.877 C 189.223 186.193,189.353 185.761,187.208 181.369 C 185.081 177.017,185.213 176.954,188.791 180.618 C 192.128 184.034,192.459 184.094,192.964 181.367 C 193.861 176.524,191.911 170.605,188.236 167.018 C 184.946 163.807,178.574 160.869,176.540 161.625 M183.696 164.649 C 188.532 167.099,191.821 172.185,192.202 177.800 C 192.411 180.897,192.069 183.141,191.501 182.388 C 191.423 182.285,189.757 180.400,187.799 178.200 C 182.387 172.120,181.905 172.534,185.599 180.092 C 188.436 185.898,188.385 185.604,186.500 185.339 C 177.164 184.025,172.985 177.696,175.005 167.926 C 176.350 161.420,176.909 161.209,183.696 164.649 M269.063 221.100 C 268.962 221.265,270.104 221.400,271.602 221.400 C 273.099 221.400,274.241 221.265,274.139 221.100 C 274.036 220.935,272.894 220.800,271.600 220.800 C 270.306 220.800,269.164 220.935,269.063 221.100 M122.981 222.505 C 122.276 224.342,123.029 246.192,123.800 246.272 C 124.422 246.336,124.444 246.308,123.900 246.148 C 123.254 245.957,123.200 245.036,123.200 234.181 L 123.200 222.420 129.500 222.299 L 135.800 222.178 129.487 222.089 C 124.707 222.022,123.128 222.123,122.981 222.505 M188.981 222.505 C 188.433 223.932,189.011 246.137,189.600 246.317 C 190.084 246.465,190.104 246.398,189.700 245.970 C 189.324 245.571,189.200 242.585,189.200 233.912 L 189.200 222.385 198.300 222.492 L 207.400 222.600 207.529 223.955 C 207.841 227.220,207.949 227.166,200.895 227.290 L 194.600 227.400 194.600 229.567 C 194.600 231.153,194.761 231.777,195.200 231.897 C 195.670 232.025,195.686 231.981,195.274 231.691 C 194.938 231.454,194.794 230.686,194.874 229.560 L 195.000 227.800 200.972 227.689 C 204.544 227.622,207.157 227.402,207.472 227.140 C 208.135 226.590,208.170 223.130,207.520 222.480 C 206.815 221.775,189.252 221.798,188.981 222.505 M137.800 222.824 C 139.871 223.432,141.934 225.466,142.567 227.525 C 142.986 228.886,143.152 229.120,143.172 228.380 C 143.233 226.155,139.466 222.329,137.321 222.436 C 136.921 222.456,137.134 222.629,137.800 222.824 M128.667 227.467 C 128.520 227.613,128.400 229.034,128.400 230.624 C 128.400 233.988,128.453 234.035,132.133 233.929 L 134.600 233.859 131.800 233.629 L 129.000 233.400 129.000 230.299 C 129.000 228.594,128.985 227.199,128.967 227.199 C 128.948 227.200,128.813 227.320,128.667 227.467 M135.092 227.645 C 135.844 227.863,136.632 228.475,136.976 229.109 C 137.374 229.843,137.573 229.980,137.584 229.529 C 137.605 228.654,135.729 227.190,134.646 227.236 C 134.050 227.261,134.183 227.383,135.092 227.645 M151.000 228.140 C 149.900 228.653,148.730 229.414,148.400 229.832 C 147.816 230.570,147.827 230.572,148.800 229.883 C 155.028 225.479,161.924 227.723,163.563 234.687 C 163.829 235.816,163.929 235.946,163.956 235.200 C 164.161 229.536,156.712 225.477,151.000 228.140 M172.400 227.837 C 170.172 228.801,166.605 232.739,167.317 233.450 C 167.413 233.547,167.718 233.082,167.993 232.417 C 170.743 225.777,181.367 226.164,183.994 233.000 C 184.417 234.100,184.771 234.678,184.781 234.284 C 184.903 229.632,177.347 225.698,172.400 227.837 M216.717 227.528 C 216.342 227.678,217.642 227.801,219.606 227.801 C 221.570 227.802,222.868 227.680,222.489 227.529 C 221.599 227.176,217.603 227.175,216.717 227.528 M239.197 227.574 C 230.870 230.107,229.410 241.052,236.800 245.546 C 237.570 246.014,238.470 246.389,238.800 246.379 C 239.130 246.368,238.630 245.987,237.689 245.530 C 232.152 242.846,230.730 236.038,234.636 230.918 C 238.043 226.451,246.412 226.656,250.203 231.300 C 250.787 232.015,251.086 232.240,250.867 231.800 C 249.185 228.420,243.356 226.309,239.197 227.574 M260.883 227.540 C 260.595 227.723,261.337 227.788,262.558 227.687 C 264.244 227.547,265.156 227.701,266.502 228.352 C 268.517 229.328,268.800 229.375,268.800 228.733 C 268.800 228.477,268.695 228.371,268.567 228.499 C 268.440 228.627,267.585 228.391,266.667 227.975 C 264.952 227.196,261.799 226.959,260.883 227.540 M213.493 229.014 C 212.135 229.937,211.316 230.866,212.500 230.141 C 214.180 229.111,215.659 228.000,215.349 228.000 C 215.149 228.000,214.314 228.456,213.493 229.014 M225.298 229.298 C 227.115 230.563,228.554 232.562,229.208 234.731 C 229.428 235.457,229.542 235.561,229.566 235.054 C 229.657 233.073,225.470 228.000,223.744 228.000 C 223.573 228.000,224.272 228.584,225.298 229.298 M257.985 229.229 L 256.600 230.458 258.200 229.345 C 259.080 228.733,259.875 228.180,259.967 228.116 C 260.058 228.052,259.962 228.000,259.752 228.000 C 259.542 228.000,258.747 228.553,257.985 229.229 M136.922 231.600 C 136.673 232.260,136.049 232.969,135.535 233.175 C 134.975 233.399,134.851 233.559,135.225 233.575 C 136.112 233.611,137.600 232.114,137.600 231.184 C 137.600 230.107,137.452 230.198,136.922 231.600 M146.955 231.812 C 146.590 232.369,146.364 232.898,146.453 232.987 C 146.542 233.076,146.918 232.620,147.289 231.974 C 148.114 230.536,147.869 230.417,146.955 231.812 M210.824 231.966 C 210.367 232.608,209.906 233.733,209.798 234.466 L 209.603 235.800 210.035 234.415 C 210.273 233.653,210.824 232.528,211.261 231.915 C 211.697 231.302,211.964 230.800,211.854 230.800 C 211.744 230.800,211.281 231.325,210.824 231.966 M142.854 231.920 C 142.767 233.404,141.743 235.014,139.933 236.518 L 138.242 237.923 140.146 240.762 C 141.194 242.323,142.133 243.600,142.235 243.600 C 142.444 243.600,141.528 242.118,139.909 239.840 C 138.514 237.877,138.517 237.846,140.179 236.866 C 141.730 235.950,143.335 233.186,143.078 231.869 C 142.913 231.023,142.907 231.025,142.854 231.920 M152.219 233.250 C 150.668 235.093,151.018 235.385,154.932 235.516 C 158.807 235.645,159.576 234.844,157.474 232.870 C 156.199 231.672,155.805 231.769,157.018 232.982 C 158.782 234.746,158.373 235.200,155.024 235.200 C 151.541 235.200,151.114 234.825,152.743 233.196 C 153.400 232.538,153.788 232.000,153.605 232.000 C 153.421 232.000,152.798 232.563,152.219 233.250 M173.214 233.073 C 171.705 234.992,172.189 235.400,175.972 235.400 C 178.612 235.400,179.373 235.271,179.517 234.800 C 179.665 234.316,179.598 234.296,179.170 234.700 C 178.846 235.006,177.507 235.200,175.720 235.200 C 172.403 235.200,172.027 234.749,173.896 233.016 C 174.499 232.457,174.782 232.000,174.525 232.000 C 174.268 232.000,173.678 232.483,173.214 233.073 M177.999 232.998 C 178.514 233.548,179.025 233.909,179.132 233.801 C 179.398 233.535,177.979 232.000,177.468 232.000 C 177.244 232.000,177.483 232.449,177.999 232.998 M205.790 234.310 L 205.800 236.600 200.200 236.800 L 194.600 237.000 194.486 241.376 C 194.416 244.030,194.180 245.998,193.886 246.376 C 193.458 246.925,193.484 246.934,194.100 246.451 C 194.690 245.988,194.800 245.220,194.800 241.562 L 194.800 237.222 200.500 237.111 L 206.200 237.000 206.323 234.843 C 206.390 233.656,206.296 232.536,206.113 232.353 C 205.930 232.170,205.785 233.051,205.790 234.310 M217.755 232.392 C 216.850 232.758,215.200 234.644,215.200 235.313 C 215.200 235.536,215.611 235.107,216.113 234.359 C 217.813 231.831,221.283 231.845,222.991 234.386 C 223.877 235.704,224.308 235.723,223.607 234.413 C 222.604 232.539,219.794 231.568,217.755 232.392 M239.905 232.626 C 236.769 234.328,236.872 239.783,240.072 241.437 C 243.209 243.059,246.800 240.881,246.800 237.355 C 246.800 233.320,243.190 230.844,239.905 232.626 M263.200 232.264 C 262.384 232.588,260.800 234.058,260.800 234.492 C 260.800 234.686,261.234 234.340,261.765 233.722 C 263.536 231.664,267.356 232.397,268.422 235.000 C 268.654 235.566,268.757 235.617,268.775 235.175 C 268.841 233.527,265.033 231.538,263.200 232.264 M245.300 233.992 C 247.870 236.843,245.960 241.600,242.245 241.600 C 239.748 241.600,238.000 239.661,238.000 236.892 C 238.000 232.854,242.619 231.019,245.300 233.992 M145.767 235.037 C 145.090 238.646,146.567 242.820,149.200 244.737 L 150.600 245.756 149.161 244.378 C 146.790 242.108,146.212 240.646,146.206 236.900 C 146.199 233.196,146.151 232.990,145.767 235.037 M166.655 235.855 C 166.513 236.886,166.474 237.808,166.569 237.902 C 166.663 237.996,166.865 237.239,167.018 236.218 C 167.171 235.198,167.210 234.276,167.104 234.171 C 166.998 234.065,166.796 234.823,166.655 235.855 M254.931 237.000 C 254.933 238.540,255.005 239.121,255.092 238.291 C 255.179 237.461,255.177 236.201,255.089 235.491 C 255.000 234.781,254.929 235.460,254.931 237.000 M252.114 237.000 C 252.117 238.100,252.195 238.503,252.287 237.895 C 252.379 237.286,252.377 236.386,252.282 235.895 C 252.187 235.403,252.111 235.900,252.114 237.000 M260.514 237.000 C 260.517 238.100,260.595 238.503,260.687 237.895 C 260.779 237.286,260.777 236.386,260.682 235.895 C 260.587 235.403,260.511 235.900,260.514 237.000 M184.763 237.200 L 184.600 238.600 178.633 238.800 C 173.797 238.962,172.630 239.114,172.483 239.600 C 172.335 240.084,172.402 240.104,172.830 239.700 C 173.203 239.348,175.052 239.200,179.072 239.200 C 185.273 239.200,185.684 239.018,185.099 236.532 C 184.997 236.099,184.860 236.373,184.763 237.200 M209.240 237.033 C 209.262 237.675,209.433 238.650,209.620 239.200 C 209.849 239.874,209.884 239.549,209.728 238.200 C 209.469 235.950,209.179 235.259,209.240 237.033 M128.881 238.902 C 128.422 239.455,128.028 246.537,128.482 246.080 C 128.637 245.923,128.817 244.267,128.882 242.398 L 129.000 239.000 130.780 239.040 C 131.759 239.063,132.628 239.285,132.712 239.535 C 132.957 240.271,134.372 241.837,134.387 241.389 C 134.448 239.500,130.038 237.508,128.881 238.902 M157.700 238.699 C 152.034 238.812,151.600 238.874,151.600 239.575 C 151.600 241.960,156.897 243.325,158.730 241.412 C 159.367 240.748,159.337 240.745,158.120 241.357 C 156.358 242.242,154.321 242.168,153.054 241.171 C 150.881 239.462,151.508 239.200,157.776 239.200 C 161.196 239.200,163.654 239.037,163.800 238.800 C 163.936 238.580,163.992 238.440,163.924 238.489 C 163.856 238.538,161.055 238.632,157.700 238.699 M215.214 238.800 C 215.242 240.294,217.621 242.000,219.675 242.000 C 221.344 242.000,224.020 240.044,223.975 238.859 C 223.956 238.375,223.859 238.424,223.608 239.045 C 222.321 242.229,217.815 242.483,215.980 239.474 C 215.553 238.774,215.208 238.470,215.214 238.800 M229.029 239.429 C 228.881 240.015,228.838 240.572,228.932 240.666 C 229.027 240.760,229.224 240.358,229.371 239.771 C 229.519 239.185,229.562 238.628,229.468 238.534 C 229.373 238.440,229.176 238.842,229.029 239.429 M267.457 240.266 C 266.821 241.013,266.589 241.502,266.933 241.370 C 267.534 241.140,268.997 239.235,268.732 239.028 C 268.659 238.971,268.086 239.528,267.457 240.266 M251.510 240.212 C 251.146 241.945,248.276 245.047,246.491 245.637 C 245.671 245.909,245.221 246.205,245.491 246.296 C 247.117 246.842,252.299 241.558,251.920 239.742 C 251.809 239.214,251.691 239.350,251.510 240.212 M260.800 239.464 C 260.800 239.682,261.295 240.297,261.900 240.830 L 263.000 241.800 262.000 240.600 C 261.450 239.940,260.955 239.325,260.900 239.233 C 260.845 239.142,260.800 239.245,260.800 239.464 M160.245 240.792 C 163.240 242.002,163.042 244.159,159.800 245.648 C 158.906 246.058,158.524 246.386,158.935 246.391 C 159.827 246.402,163.200 244.045,163.200 243.411 C 163.200 242.749,160.662 240.396,159.981 240.425 C 159.651 240.440,159.765 240.598,160.245 240.792 M167.227 240.800 C 167.219 241.758,169.507 244.519,171.120 245.498 C 173.278 246.807,173.673 246.603,171.578 245.261 C 169.592 243.988,168.796 243.160,167.866 241.400 C 167.517 240.740,167.230 240.470,167.227 240.800 M173.800 241.377 C 175.321 242.668,177.514 242.724,179.646 241.526 L 181.202 240.652 182.401 241.801 C 184.040 243.372,183.928 243.796,181.500 245.188 C 179.279 246.462,179.155 246.848,181.320 245.752 C 184.405 244.190,184.722 243.046,182.534 241.377 L 181.068 240.258 179.555 241.129 C 177.987 242.031,175.040 242.313,174.601 241.602 C 174.466 241.383,173.960 241.014,173.478 240.781 C 172.863 240.485,172.960 240.663,173.800 241.377 M227.567 242.683 C 226.978 243.586,225.761 244.603,224.454 245.283 C 223.274 245.897,222.612 246.400,222.982 246.400 C 224.449 246.400,229.396 242.063,228.711 241.377 C 228.613 241.280,228.099 241.868,227.567 242.683 M263.905 241.883 C 264.402 241.979,265.122 241.975,265.505 241.875 C 265.887 241.775,265.480 241.696,264.600 241.701 C 263.720 241.705,263.407 241.787,263.905 241.883 M256.615 243.462 C 257.280 244.639,260.223 246.711,260.639 246.294 C 260.742 246.192,260.272 245.879,259.596 245.598 C 258.920 245.318,257.813 244.439,257.135 243.645 C 255.931 242.233,255.919 242.228,256.615 243.462 M212.000 243.767 C 212.911 244.775,214.400 245.839,214.400 245.481 C 214.400 245.400,213.635 244.732,212.700 243.997 C 211.208 242.823,211.122 242.795,212.000 243.767 M136.122 244.600 C 136.652 245.480,137.426 246.266,137.843 246.347 C 138.517 246.478,138.504 246.413,137.719 245.747 C 137.235 245.336,136.460 244.550,135.998 244.000 C 135.303 243.173,135.325 243.277,136.122 244.600 M142.945 244.676 C 143.134 244.959,143.185 245.462,143.057 245.795 C 142.930 246.128,142.989 246.400,143.189 246.400 C 143.923 246.400,143.977 245.663,143.298 244.923 C 142.914 244.505,142.755 244.393,142.945 244.676 M266.841 245.434 C 265.839 246.146,264.893 246.418,263.241 246.467 C 261.384 246.523,261.271 246.562,262.582 246.696 C 264.757 246.919,266.504 246.535,267.487 245.619 C 267.942 245.195,268.424 244.957,268.557 245.091 C 268.691 245.224,268.800 245.123,268.800 244.867 C 268.800 244.211,268.400 244.327,266.841 245.434 M154.300 246.689 C 155.015 246.778,156.185 246.778,156.900 246.689 C 157.615 246.601,157.030 246.528,155.600 246.528 C 154.170 246.528,153.585 246.601,154.300 246.689 M175.091 246.689 C 175.801 246.777,177.061 246.779,177.891 246.692 C 178.721 246.605,178.140 246.533,176.600 246.531 C 175.060 246.529,174.381 246.600,175.091 246.689 M217.891 246.689 C 218.601 246.777,219.861 246.779,220.691 246.692 C 221.521 246.605,220.940 246.533,219.400 246.531 C 217.860 246.529,217.181 246.600,217.891 246.689 M240.691 246.689 C 241.401 246.777,242.661 246.779,243.491 246.692 C 244.321 246.605,243.740 246.533,242.200 246.531 C 240.660 246.529,239.981 246.600,240.691 246.689 " stroke="none" fill="#bfd0a9" fill-rule="evenodd"></path><path id="path3" d="M269.200 225.376 C 269.200 229.651,268.965 230.015,266.992 228.795 C 266.226 228.321,265.374 228.025,265.099 228.135 C 264.769 228.268,264.811 228.348,265.222 228.368 C 265.565 228.386,266.455 228.850,267.200 229.400 C 269.421 231.039,269.536 230.881,269.675 225.999 C 269.744 223.579,269.665 221.599,269.500 221.599 C 269.335 221.600,269.200 223.299,269.200 225.376 M273.512 233.621 L 273.623 245.643 271.512 245.521 C 269.797 245.423,269.421 245.274,269.511 244.730 C 269.709 243.528,268.785 243.502,267.111 244.662 C 263.849 246.922,258.922 245.787,256.786 242.284 C 256.355 241.578,256.002 241.219,256.001 241.486 C 255.991 244.800,263.400 247.546,266.562 245.400 C 268.343 244.191,268.671 244.164,269.000 245.200 C 269.216 245.882,269.605 246.000,271.627 246.000 L 274.000 246.000 274.000 233.800 C 274.000 227.090,273.865 221.600,273.700 221.600 C 273.535 221.600,273.450 227.009,273.512 233.621 M123.381 222.905 C 123.274 223.183,123.235 228.448,123.294 234.605 L 123.400 245.800 125.800 245.836 L 128.200 245.872 125.894 245.716 L 123.588 245.560 123.694 234.280 L 123.800 223.000 130.728 223.000 C 134.539 223.000,137.239 222.883,136.728 222.740 C 134.882 222.223,123.589 222.363,123.381 222.905 M189.446 223.025 C 189.311 223.377,189.240 228.106,189.290 233.533 L 189.379 243.400 189.590 233.200 L 189.800 223.000 198.269 222.892 C 205.607 222.799,206.764 222.867,206.928 223.400 C 207.066 223.844,207.101 223.818,207.054 223.308 C 206.960 222.273,189.840 221.998,189.446 223.025 M139.531 224.374 C 143.165 227.053,143.468 231.933,140.225 235.577 C 139.105 236.836,139.085 236.902,140.000 236.348 C 143.804 234.043,143.548 225.926,139.607 223.935 C 137.790 223.016,137.778 223.083,139.531 224.374 M206.846 225.500 C 206.821 225.995,206.575 226.412,206.300 226.428 C 206.025 226.443,203.370 226.491,200.400 226.534 C 197.430 226.577,194.775 226.755,194.500 226.930 C 193.951 227.279,193.806 231.475,194.316 232.277 C 194.650 232.803,205.602 233.224,205.601 232.711 C 205.600 232.552,203.125 232.372,200.100 232.311 L 194.600 232.200 194.481 229.700 L 194.362 227.200 200.593 227.200 C 207.165 227.200,207.538 227.092,207.080 225.323 C 206.932 224.750,206.883 224.787,206.846 225.500 M128.391 227.015 C 127.837 227.686,127.861 227.698,128.771 227.213 C 132.703 225.117,138.943 228.267,137.642 231.690 C 136.828 233.831,130.168 235.139,128.430 233.500 C 128.002 233.096,127.935 233.116,128.082 233.600 C 128.392 234.618,135.035 234.638,136.678 233.625 C 138.881 232.269,138.850 228.837,136.621 227.377 C 135.030 226.335,129.165 226.077,128.391 227.015 M218.900 227.876 C 219.285 227.976,219.915 227.976,220.300 227.876 C 220.685 227.775,220.370 227.693,219.600 227.693 C 218.830 227.693,218.515 227.775,218.900 227.876 M240.600 227.870 C 236.468 228.788,232.735 232.302,232.836 235.178 C 232.868 236.070,232.922 236.026,233.266 234.829 C 234.349 231.058,236.696 229.137,241.400 228.171 C 242.721 227.900,243.260 227.682,242.600 227.686 C 241.940 227.690,241.040 227.773,240.600 227.870 M128.128 230.400 C 128.128 231.830,128.201 232.415,128.289 231.700 C 128.378 230.985,128.378 229.815,128.289 229.100 C 128.201 228.385,128.128 228.970,128.128 230.400 M150.313 229.169 C 148.415 230.373,146.374 233.247,146.432 234.635 C 146.449 235.056,146.724 234.664,147.044 233.763 C 147.760 231.743,149.684 229.715,151.800 228.748 C 152.680 228.346,153.120 228.014,152.778 228.009 C 152.436 228.004,151.327 228.526,150.313 229.169 M157.919 228.758 C 161.070 229.846,163.200 233.079,163.200 236.774 L 163.200 238.400 157.000 238.400 C 150.968 238.400,150.800 238.423,150.800 239.240 C 150.800 241.016,153.285 242.806,155.660 242.741 L 157.800 242.682 155.458 242.433 C 153.565 242.231,152.933 241.970,152.158 241.070 C 150.337 238.952,150.598 238.832,157.300 238.710 L 163.400 238.600 163.365 236.200 C 163.299 231.731,160.206 227.959,156.651 228.013 C 156.183 228.020,156.754 228.355,157.919 228.758 M172.200 228.465 C 165.468 232.172,165.466 241.902,172.197 245.484 C 176.628 247.842,185.834 244.628,182.342 241.942 C 181.188 241.055,180.258 241.007,179.600 241.800 C 178.999 242.524,179.332 242.574,180.383 241.918 C 181.206 241.404,182.800 242.374,182.800 243.388 C 182.800 244.777,178.152 246.211,174.951 245.811 C 166.029 244.696,164.890 231.206,173.491 228.531 C 174.697 228.156,174.799 228.058,174.000 228.043 C 173.450 228.033,172.640 228.223,172.200 228.465 M178.295 228.389 C 181.162 229.070,183.014 231.305,184.016 235.293 C 184.809 238.452,184.822 238.445,178.231 238.379 C 170.887 238.305,170.215 238.695,172.960 241.440 C 174.223 242.703,174.487 242.795,176.660 242.724 L 179.000 242.649 176.738 242.506 C 174.240 242.347,172.400 241.123,172.400 239.619 C 172.400 238.832,172.624 238.800,178.100 238.794 C 184.891 238.787,185.002 238.742,184.614 236.144 C 183.931 231.566,180.909 227.908,177.920 228.041 C 177.222 228.072,177.312 228.156,178.295 228.389 M214.807 228.909 C 213.862 229.408,212.643 230.443,212.098 231.209 C 211.140 232.555,211.138 232.566,212.054 231.569 C 213.393 230.110,215.201 228.932,216.815 228.470 C 217.714 228.212,217.906 228.059,217.363 228.036 C 216.903 228.016,215.753 228.409,214.807 228.909 M222.513 228.539 C 232.478 232.331,229.907 246.000,219.228 246.000 C 216.432 246.000,213.623 244.442,211.849 241.908 C 210.348 239.764,209.973 239.614,210.980 241.560 C 214.294 247.969,224.771 247.889,228.083 241.429 C 230.800 236.130,227.718 229.044,222.319 228.175 C 221.008 227.965,221.009 227.967,222.513 228.539 M244.803 228.374 C 252.783 230.801,253.809 241.064,246.454 244.885 C 241.356 247.534,235.311 245.139,233.371 239.701 C 232.950 238.521,232.831 238.404,232.818 239.153 C 232.699 245.603,244.065 248.673,249.169 243.569 C 254.142 238.597,250.886 227.728,244.516 228.034 C 244.034 228.058,244.128 228.168,244.803 228.374 M258.766 229.300 C 255.875 231.517,254.281 236.765,255.518 240.000 C 255.795 240.724,255.845 240.217,255.700 238.157 C 255.376 233.537,256.823 230.464,260.081 228.851 C 261.027 228.383,261.499 228.000,261.131 228.000 C 260.763 228.000,259.699 228.585,258.766 229.300 M152.844 231.758 C 151.049 232.753,150.001 236.036,151.500 235.968 C 151.918 235.950,151.999 235.856,151.700 235.735 C 150.825 235.382,151.160 233.979,152.419 232.719 C 153.977 231.162,156.437 231.297,157.920 233.021 C 159.479 234.834,159.003 235.369,155.596 235.628 L 152.600 235.856 155.900 235.928 C 158.931 235.994,159.200 235.936,159.200 235.219 C 159.200 232.173,155.616 230.222,152.844 231.758 M173.687 231.824 C 172.544 232.625,171.536 234.568,171.846 235.375 C 172.122 236.094,179.757 236.316,180.189 235.618 C 181.642 233.267,176.177 230.080,173.687 231.824 M263.800 231.600 C 263.180 231.867,263.380 231.950,264.694 231.972 C 269.578 232.053,270.946 239.006,266.600 241.663 C 265.867 242.111,265.651 242.398,266.046 242.399 C 270.172 242.408,270.658 232.854,266.584 231.832 C 266.084 231.706,265.433 231.525,265.137 231.430 C 264.842 231.334,264.240 231.411,263.800 231.600 M178.011 232.277 C 181.085 234.380,180.356 235.600,176.024 235.600 C 172.139 235.600,171.744 235.400,172.472 233.803 C 173.395 231.776,176.165 231.013,178.011 232.277 M216.876 232.118 C 212.825 234.467,214.093 242.537,218.486 242.364 C 219.242 242.334,219.189 242.267,218.178 241.973 C 213.086 240.493,214.019 232.000,219.274 232.000 C 222.640 232.000,224.684 234.430,224.285 237.958 C 224.094 239.644,224.111 239.692,224.488 238.528 C 225.915 234.121,220.820 229.831,216.876 232.118 M238.903 232.575 C 235.494 235.443,237.100 242.500,241.131 242.364 C 242.196 242.328,242.195 242.327,240.987 241.975 C 235.444 240.363,236.570 232.000,242.331 232.000 C 247.408 232.000,248.945 239.783,244.270 241.816 C 243.298 242.239,243.193 242.372,243.825 242.384 C 245.381 242.414,247.600 239.375,247.600 237.213 C 247.600 232.606,242.254 229.755,238.903 232.575 M261.296 232.900 C 258.028 236.389,260.275 242.978,264.660 242.764 C 265.067 242.744,264.770 242.549,264.000 242.331 C 260.058 241.215,258.705 236.034,261.599 233.140 C 262.226 232.513,262.604 232.000,262.439 232.000 C 262.274 232.000,261.760 232.405,261.296 232.900 M210.124 237.000 C 210.126 238.320,210.201 238.812,210.290 238.093 C 210.379 237.374,210.377 236.294,210.286 235.693 C 210.195 235.092,210.122 235.680,210.124 237.000 M197.100 236.697 C 198.695 236.773,201.305 236.773,202.900 236.697 C 204.495 236.621,203.190 236.559,200.000 236.559 C 196.810 236.559,195.505 236.621,197.100 236.697 M137.850 237.413 C 137.709 237.782,138.569 239.443,140.007 241.579 C 142.896 245.868,142.878 245.600,140.267 245.600 C 138.184 245.600,135.600 243.639,135.600 242.057 C 135.600 241.842,135.465 241.607,135.300 241.533 C 135.135 241.460,134.502 240.635,133.894 239.700 C 132.870 238.125,132.659 238.000,131.027 238.000 C 128.027 238.000,127.991 238.048,128.075 241.943 L 128.149 245.400 128.375 242.000 L 128.600 238.600 130.622 238.482 L 132.643 238.364 134.774 241.682 C 137.450 245.847,137.652 246.000,140.476 246.000 C 143.325 246.000,143.325 245.998,140.563 241.760 C 139.133 239.566,138.398 238.052,138.525 237.564 C 138.763 236.657,138.190 236.529,137.850 237.413 M194.084 241.300 L 194.000 245.600 192.080 245.600 C 191.024 245.600,189.933 245.375,189.656 245.100 C 189.252 244.699,189.205 244.739,189.419 245.300 C 189.755 246.183,193.898 246.331,194.228 245.472 C 194.339 245.181,194.371 243.156,194.299 240.972 L 194.167 237.000 194.084 241.300 M146.406 239.433 C 146.409 239.855,146.595 240.470,146.818 240.800 C 147.115 241.238,147.152 241.076,146.956 240.200 C 146.627 238.729,146.398 238.410,146.406 239.433 M223.149 240.661 C 222.847 241.025,222.060 241.558,221.400 241.846 C 220.502 242.237,220.402 242.369,221.000 242.372 C 221.847 242.375,222.647 241.850,223.549 240.700 C 224.247 239.811,223.884 239.775,223.149 240.661 M158.576 241.787 C 158.149 242.110,158.014 242.380,158.276 242.387 C 158.538 242.394,158.864 242.220,159.000 242.000 C 159.397 241.357,160.366 241.536,161.317 242.429 L 162.200 243.258 161.094 244.215 C 159.608 245.501,157.072 246.132,154.400 245.882 C 153.040 245.755,152.506 245.804,153.000 246.010 C 155.739 247.153,162.387 245.210,162.397 243.264 C 162.405 241.768,159.888 240.795,158.576 241.787 M147.538 242.200 C 148.001 243.152,149.459 244.525,150.674 245.150 C 152.175 245.923,152.270 245.638,150.800 244.767 C 150.030 244.311,148.893 243.367,148.274 242.669 C 147.655 241.971,147.324 241.760,147.538 242.200 " stroke="none" fill="#939394" fill-rule="evenodd"></path><path id="path4" d="M269.067 221.467 C 268.920 221.613,268.800 223.398,268.800 225.433 C 268.800 227.561,268.626 229.220,268.390 229.337 C 268.165 229.449,268.210 229.494,268.490 229.438 C 268.851 229.365,269.033 228.211,269.114 225.487 L 269.228 221.639 271.514 221.495 L 273.800 221.351 271.567 221.276 C 270.338 221.234,269.213 221.320,269.067 221.467 M274.178 233.600 C 274.178 240.310,274.232 243.055,274.299 239.700 C 274.366 236.345,274.366 230.855,274.299 227.500 C 274.232 224.145,274.178 226.890,274.178 233.600 M207.193 224.519 L 207.385 226.600 207.518 224.846 C 207.591 223.881,207.505 222.944,207.326 222.765 C 207.147 222.585,207.087 223.375,207.193 224.519 M130.300 227.089 C 131.015 227.178,132.185 227.178,132.900 227.089 C 133.615 227.001,133.030 226.928,131.600 226.928 C 130.170 226.928,129.585 227.001,130.300 227.089 M174.900 227.887 C 175.505 227.978,176.495 227.978,177.100 227.887 C 177.705 227.795,177.210 227.720,176.000 227.720 C 174.790 227.720,174.295 227.795,174.900 227.887 M169.578 230.300 L 168.200 231.800 169.700 230.422 C 171.096 229.138,171.384 228.800,171.078 228.800 C 171.012 228.800,170.337 229.475,169.578 230.300 M154.100 231.876 C 154.485 231.976,155.115 231.976,155.500 231.876 C 155.885 231.775,155.570 231.693,154.800 231.693 C 154.030 231.693,153.715 231.775,154.100 231.876 M175.300 231.876 C 175.685 231.976,176.315 231.976,176.700 231.876 C 177.085 231.775,176.770 231.693,176.000 231.693 C 175.230 231.693,174.915 231.775,175.300 231.876 M194.751 232.112 C 194.923 232.284,197.480 232.373,200.432 232.311 L 205.800 232.197 200.119 231.998 C 196.994 231.889,194.578 231.940,194.751 232.112 M205.714 234.600 C 205.717 235.700,205.795 236.103,205.887 235.495 C 205.979 234.886,205.977 233.986,205.882 233.495 C 205.787 233.003,205.711 233.500,205.714 234.600 M209.701 237.000 C 209.705 237.880,209.787 238.193,209.883 237.695 C 209.979 237.198,209.975 236.478,209.875 236.095 C 209.775 235.713,209.696 236.120,209.701 237.000 M229.301 237.000 C 229.305 237.880,229.387 238.193,229.483 237.695 C 229.579 237.198,229.575 236.478,229.475 236.095 C 229.375 235.713,229.296 236.120,229.301 237.000 M260.101 237.000 C 260.105 237.880,260.187 238.193,260.283 237.695 C 260.379 237.198,260.375 236.478,260.275 236.095 C 260.175 235.713,260.096 236.120,260.101 237.000 M268.901 237.000 C 268.905 237.880,268.987 238.193,269.083 237.695 C 269.179 237.198,269.175 236.478,269.075 236.095 C 268.975 235.713,268.896 236.120,268.901 237.000 M163.568 237.300 C 163.449 238.160,163.510 238.650,163.712 238.448 C 163.905 238.255,163.998 237.581,163.919 236.949 C 163.787 235.891,163.759 235.919,163.568 237.300 M246.893 237.200 C 246.893 237.970,246.975 238.285,247.076 237.900 C 247.176 237.515,247.176 236.885,247.076 236.500 C 246.975 236.115,246.893 236.430,246.893 237.200 M261.688 241.013 C 262.286 241.643,262.847 242.077,262.935 241.979 C 263.023 241.880,262.533 241.365,261.847 240.834 L 260.600 239.869 261.688 241.013 M159.023 241.163 C 158.900 241.362,159.165 241.430,159.613 241.313 C 160.090 241.188,160.793 241.410,161.313 241.850 L 162.200 242.600 161.438 241.700 C 160.661 240.783,159.428 240.508,159.023 241.163 M141.967 243.862 C 143.182 245.702,143.035 245.944,140.598 246.113 L 138.396 246.266 140.694 246.233 C 143.408 246.194,143.751 245.628,142.171 243.800 L 141.134 242.600 141.967 243.862 M128.000 245.533 C 128.000 245.814,127.241 246.028,126.100 246.070 L 124.200 246.140 125.954 246.296 C 127.620 246.443,128.864 245.931,128.273 245.340 C 128.123 245.190,128.000 245.277,128.000 245.533 M192.000 246.000 L 189.800 246.270 191.876 246.335 C 193.018 246.371,194.064 246.220,194.200 246.000 C 194.336 245.780,194.392 245.629,194.324 245.665 C 194.256 245.701,193.210 245.852,192.000 246.000 " stroke="none" fill="#9c9c9d" fill-rule="evenodd"></path></g></svg>