<?xml version="1.0" standalone="no"?>
<!DOCTYPE svg PUBLIC "-//W3C//DTD SVG 20010904//EN"
 "http://www.w3.org/TR/2001/REC-SVG-20010904/DTD/svg10.dtd">
<svg version="1.0" xmlns="http://www.w3.org/2000/svg"
 width="500.000000pt" height="500.000000pt" viewBox="0 0 500.000000 500.000000"
 preserveAspectRatio="xMidYMid meet">

<g transform="translate(0.000000,500.000000) scale(0.100000,-0.100000)"
fill="#000000" stroke="none">
<path d="M3369 2173 l3 -57 -26 17 c-56 37 -128 12 -147 -53 -31 -101 48 -188
132 -146 37 19 42 20 34 6 -4 -6 7 -10 27 -10 l33 0 -2 142 c-1 79 -2 146 -3
151 0 4 -12 7 -27 7 -28 0 -28 -1 -24 -57z m-11 -106 c22 -45 -7 -97 -53 -97
-28 0 -55 34 -55 69 0 62 82 83 108 28z"/>
<path d="M1540 2075 l0 -145 30 0 c29 0 30 2 30 45 0 44 0 45 34 45 28 0 36
-5 46 -29 15 -38 38 -57 73 -63 34 -7 34 6 -2 57 l-28 39 28 27 c22 20 29 36
29 64 0 77 -44 105 -165 105 l-75 0 0 -145z m178 67 c16 -22 15 -29 -9 -53
-15 -15 -30 -19 -62 -17 -40 3 -42 5 -45 36 -2 19 -1 40 1 46 7 19 99 9 115
-12z"/>
<path d="M2370 2075 l0 -145 30 0 c30 0 30 1 30 55 l0 55 70 0 c68 0 70 1 70
25 0 23 -4 25 -47 27 -27 1 -58 1 -70 0 -20 -1 -23 4 -23 34 l0 34 80 0 80 0
0 30 0 30 -110 0 -110 0 0 -145z"/>
<path d="M1878 2133 c-33 -21 -48 -53 -48 -102 0 -89 111 -141 184 -86 16 12
17 16 4 29 -10 9 -20 11 -29 5 -20 -13 -73 -11 -87 3 -29 29 -13 38 66 38 l78
0 -4 33 c-6 54 -40 88 -92 93 -31 3 -53 -1 -72 -13z m92 -43 c31 -31 24 -40
-30 -40 -54 0 -65 14 -34 44 21 21 40 20 64 -4z"/>
<path d="M2124 2116 c-27 -27 -34 -42 -34 -72 0 -99 107 -157 185 -101 17 13
17 17 6 31 -10 12 -17 14 -25 6 -18 -18 -84 -12 -96 9 -5 11 -10 22 -10 25 0
3 36 6 80 6 89 0 92 3 66 64 -18 44 -52 66 -99 66 -31 0 -46 -7 -73 -34z m108
-23 c33 -29 22 -43 -32 -43 -54 0 -62 10 -33 42 20 22 41 23 65 1z"/>
<path d="M2678 2133 c-49 -31 -66 -110 -33 -159 60 -91 215 -50 215 57 0 21
-5 49 -11 62 -24 53 -116 74 -171 40z m102 -43 c35 -19 33 -88 -4 -112 -35
-24 -96 11 -96 55 0 53 51 83 100 57z"/>
<path d="M2973 2140 c-29 -12 -63 -67 -63 -103 0 -62 58 -117 123 -117 39 0
90 41 106 86 12 35 12 44 -3 75 -28 59 -99 85 -163 59z m99 -57 c39 -35 11
-113 -41 -113 -52 0 -85 74 -51 114 17 21 69 20 92 -1z"/>
</g>
</svg>
